<svg width="22" height="25" viewBox="0 0 22 25" fill="none" xmlns="http://www.w3.org/2000/svg">
<path d="M6.83013 0.480982H15.5421C15.9701 0.679952 16.272 0.977921 16.3069 1.49233C16.9844 1.49233 17.6454 1.49039 18.3063 1.49233C18.8499 1.49524 19.3681 1.61268 19.836 1.89221C20.8997 2.52698 21.4054 3.47524 21.4054 4.70982C21.4025 9.20849 21.4044 13.7062 21.4044 18.2048C21.4044 19.4093 21.3899 20.6138 21.4073 21.8174C21.4355 23.7294 19.8593 25.0125 18.2199 24.9999C13.5145 24.965 8.80915 24.9883 4.10375 24.9873C3.95234 24.9873 3.79899 24.9931 3.65049 24.9698C2.04999 24.7223 0.974585 23.4897 0.972644 21.8639C0.96585 16.122 0.969732 10.379 0.969732 4.63703C0.969732 4.16144 1.04253 3.69847 1.258 3.27044C1.8287 2.13874 2.75367 1.53989 4.01931 1.49524C4.69581 1.47195 5.37328 1.49136 6.06531 1.49136C6.10219 0.977921 6.4021 0.67801 6.8311 0.480011L6.83013 0.480982ZM6.05269 3.54415C5.43054 3.54415 4.81713 3.54415 4.20372 3.54415C3.42143 3.54415 3.02349 3.93724 3.02349 4.71759C3.02349 10.4042 3.02834 16.0909 3.0167 21.7785C3.01476 22.556 3.55343 22.9491 4.18528 22.9462C7.93368 22.9277 11.6831 22.9374 15.4315 22.9374C16.405 22.9374 17.3775 22.9403 18.351 22.9355C18.7984 22.9335 19.176 22.6559 19.2963 22.2308C19.341 22.0726 19.3468 21.9008 19.3478 21.7349C19.3507 16.0715 19.3497 10.4091 19.3497 4.74573C19.3497 4.65062 19.3468 4.55453 19.3371 4.45941C19.2924 4.02265 19.0013 3.68974 18.5742 3.58491C18.5432 3.57715 18.5121 3.56162 18.482 3.56162C17.7599 3.56065 17.0368 3.56065 16.3176 3.56065C16.1497 4.31479 15.8284 4.572 15.0646 4.57297C12.4721 4.57297 9.88068 4.57297 7.28824 4.57297C6.54672 4.57297 6.21769 4.30509 6.05366 3.54512L6.05269 3.54415Z" fill="#8F9BB3"/>
<path d="M9.67489 14.3526C10.2077 13.8867 10.759 13.4053 11.3113 12.9229C12.0499 12.2775 12.7866 11.6291 13.5271 10.9856C14.0124 10.5634 14.6161 10.5877 15.0189 11.038C15.4062 11.4709 15.3499 12.1125 14.8792 12.5259C13.3806 13.8421 11.882 15.1562 10.3786 16.4665C9.78553 16.9829 9.27209 16.9528 8.72662 16.3879C8.29471 15.9405 7.86086 15.494 7.43089 15.0436C6.99413 14.5865 6.98734 13.9605 7.41051 13.5499C7.83466 13.1384 8.45195 13.1685 8.90327 13.6159C9.15077 13.8615 9.40895 14.0983 9.67489 14.3516V14.3526Z" fill="#8F9BB3"/>
</svg>
