<svg width="20" height="20" viewBox="0 0 20 20" fill="none" xmlns="http://www.w3.org/2000/svg">
<g clip-path="url(#clip0_1_171)">
<g clip-path="url(#clip1_1_171)">
<path fill-rule="evenodd" clip-rule="evenodd" d="M19.9404 17.1311C19.8525 16.7091 19.4393 16.4382 19.0171 16.526C18.595 16.6139 18.3241 17.0273 18.412 17.4493C18.4626 17.6924 18.4023 17.9416 18.2467 18.133C18.1565 18.2439 17.9555 18.4299 17.6223 18.4299H2.37679C2.04356 18.4299 1.84252 18.2439 1.75236 18.133C1.59667 17.9416 1.53641 17.6924 1.58703 17.4493C2.39713 13.5582 5.82918 10.7159 9.79259 10.62C9.86124 10.6227 9.93021 10.624 9.99952 10.624C10.0691 10.624 10.1383 10.6226 10.2072 10.62C12.9991 10.687 15.5796 12.101 17.1423 14.4316C17.3823 14.7897 17.8672 14.8853 18.2253 14.6453C18.5834 14.4052 18.6791 13.9203 18.439 13.5622C17.1581 11.652 15.2982 10.2629 13.1776 9.56495C14.4699 8.59589 15.3075 7.05192 15.3075 5.31601C15.3075 2.38919 12.9264 0.00799561 9.99953 0.00799561C7.07267 0.00799561 4.69152 2.38919 4.69152 5.31601C4.69152 7.05298 5.53019 8.59776 6.82382 9.56675C5.63857 9.95697 4.52643 10.5641 3.55303 11.3648C1.76813 12.833 0.527111 14.8808 0.0586409 17.1311C-0.0881891 17.8362 0.0877209 18.5605 0.541161 19.118C0.992381 19.6729 1.66146 19.9911 2.37679 19.9911H17.6222C18.3376 19.9911 19.0067 19.6729 19.4578 19.118C19.9114 18.5605 20.0872 17.8362 19.9404 17.1311ZM6.25268 5.31601C6.25268 3.24998 7.93348 1.56918 9.99951 1.56918C12.0655 1.56918 13.7463 3.24998 13.7463 5.31601C13.7463 7.31842 12.1674 8.95898 10.1892 9.05808C10.126 9.05691 10.0628 9.05632 9.99951 9.05632C9.93652 9.05632 9.87352 9.05695 9.81061 9.05812C7.83201 8.9594 6.25268 7.31869 6.25268 5.31601Z" fill="#8F9BB3"/>
</g>
</g>
<defs>
<clipPath id="clip0_1_171">
<rect width="19.9831" height="19.9831" fill="white" transform="translate(0.00799561 0.00799561)"/>
</clipPath>
<clipPath id="clip1_1_171">
<rect width="19.9831" height="19.9831" fill="white" transform="translate(0.00799561 0.00799561)"/>
</clipPath>
</defs>
</svg>
