<svg width="35" height="35" viewBox="0 0 35 35" fill="none" xmlns="http://www.w3.org/2000/svg">
<rect x="1.06" y="0.639954" width="33" height="33" rx="9.5" stroke="#F4F5F7"/>
<g clip-path="url(#clip0_34_9)">
<path d="M22.4995 17.1401C22.4995 17.3702 22.403 17.6003 22.2104 17.7757L16.1471 23.2961C15.7614 23.6473 15.136 23.6473 14.7505 23.2961C14.3649 22.9451 14.3649 22.3759 14.7505 22.0247L20.1156 17.1401L14.7506 12.2555C14.3651 11.9044 14.3651 11.3352 14.7506 10.9842C15.1362 10.6328 15.7615 10.6328 16.1473 10.9842L22.2106 16.5045C22.4032 16.68 22.4995 16.9101 22.4995 17.1401V17.1401Z" fill="#222B45"/>
</g>
<path opacity="0.5" d="M10.56 1.5H24.56C29.8067 1.5 34.06 5.75329 34.06 11V25C34.06 30.2467 29.8067 34.5 24.56 34.5H10.56C5.31329 34.5 1.06 30.2467 1.06 25V11C1.06 5.75329 5.31329 1.5 10.56 1.5Z" stroke="#CED3DE"/>
<g clip-path="url(#clip1_34_9)">
<path d="M22.4995 17.1401C22.4995 17.3702 22.403 17.6003 22.2104 17.7757L16.1471 23.2961C15.7614 23.6473 15.136 23.6473 14.7505 23.2961C14.3649 22.9451 14.3649 22.3759 14.7505 22.0247L20.1156 17.1401L14.7506 12.2555C14.3651 11.9044 14.3651 11.3352 14.7506 10.9842C15.1362 10.6328 15.7615 10.6328 16.1473 10.9842L22.2106 16.5045C22.4032 16.68 22.4995 16.9101 22.4995 17.1401V17.1401Z" fill="#222B45"/>
</g>
<defs>
<clipPath id="clip0_34_9">
<rect width="12.8388" height="8.03819" fill="white" transform="matrix(0 -1 1 0 14.4613 23.5595)"/>
</clipPath>
<clipPath id="clip1_34_9">
<rect width="12.8388" height="8.03819" fill="white" transform="matrix(0 -1 1 0 14.4613 23.5595)"/>
</clipPath>
</defs>
</svg>
